<svg width="24" height="25" viewBox="0 0 24 25" fill="none" xmlns="http://www.w3.org/2000/svg">
<path d="M7 14.5C7 13.9477 7.44772 13.5 8 13.5C8.55229 13.5 9 13.9477 9 14.5C9 15.0523 8.55229 15.5 8 15.5C7.44772 15.5 7 15.0523 7 14.5Z" fill="#6E5D65"/>
<path d="M8 17.5C7.44772 17.5 7 17.9477 7 18.5C7 19.0523 7.44772 19.5 8 19.5C8.55229 19.5 9 19.0523 9 18.5C9 17.9477 8.55229 17.5 8 17.5Z" fill="#6E5D65"/>
<path d="M11 14.5C11 13.9477 11.4477 13.5 12 13.5C12.5523 13.5 13 13.9477 13 14.5C13 15.0523 12.5523 15.5 12 15.5C11.4477 15.5 11 15.0523 11 14.5Z" fill="#6E5D65"/>
<path d="M12 17.5C11.4477 17.5 11 17.9477 11 18.5C11 19.0523 11.4477 19.5 12 19.5C12.5523 19.5 13 19.0523 13 18.5C13 17.9477 12.5523 17.5 12 17.5Z" fill="#6E5D65"/>
<path d="M15 14.5C15 13.9477 15.4477 13.5 16 13.5C16.5523 13.5 17 13.9477 17 14.5C17 15.0523 16.5523 15.5 16 15.5C15.4477 15.5 15 15.0523 15 14.5Z" fill="#6E5D65"/>
<path d="M16 17.5C15.4477 17.5 15 17.9477 15 18.5C15 19.0523 15.4477 19.5 16 19.5C16.5523 19.5 17 19.0523 17 18.5C17 17.9477 16.5523 17.5 16 17.5Z" fill="#6E5D65"/>
<path fill-rule="evenodd" clip-rule="evenodd" d="M6 2.5C6 1.94772 6.44772 1.5 7 1.5C7.55228 1.5 8 1.94772 8 2.5V3.5H16V2.5C16 1.94772 16.4477 1.5 17 1.5C17.5523 1.5 18 1.94772 18 2.5V3.5H19C20.6569 3.5 22 4.84315 22 6.5V20.5C22 22.1569 20.6569 23.5 19 23.5H5C3.34315 23.5 2 22.1569 2 20.5V6.5C2 4.84315 3.34315 3.5 5 3.5H6V2.5ZM16 5.5V6.5C16 7.05228 16.4477 7.5 17 7.5C17.5523 7.5 18 7.05228 18 6.5V5.5H19C19.5523 5.5 20 5.94772 20 6.5V9.5H4V6.5C4 5.94772 4.44772 5.5 5 5.5H6V6.5C6 7.05228 6.44772 7.5 7 7.5C7.55228 7.5 8 7.05228 8 6.5V5.5H16ZM4 11.5V20.5C4 21.0523 4.44772 21.5 5 21.5H19C19.5523 21.5 20 21.0523 20 20.5V11.5H4Z" fill="#6E5D65"/>
</svg>
